# File created by Blade
# Date/Time:  Tue Jan 27 19:32:37 2015
# Frame Rate: 120.000 fps
#------------------------------------------------------
:FULLY-SPECIFIED
:DEGREES
1955
root 3.615947 32.207051 -0.662355 -6.144500 -2.953652 -0.340637
Spine 3.133473 8.657579 -2.487159
Head 18.199807 -51.545972 -1.334249
LeftShoulder -1.834491 -8.273122 25.896688
LeftArm 0.824678 40.927535 -98.570644
LeftForeArm 2.627984 0.000000 9.786028
LeftHand 10.007832 -0.000000 -4.884903
LeftHandThumb1 -26.253704 0.000000 33.147579
RightShoulder -5.541340 -3.888000 -25.645442
RightArm 27.406781 1.548570 58.674277
RightForeArm -4.153236 -0.000000 106.364747
RightHand 28.519020 -0.000000 -18.640821
RightHandThumb1 -24.326973 -0.000000 -32.862282
LeftUpLeg 12.078633 3.643485 -0.786662
LeftLeg 2.859270 -0.000000 -0.000000
LeftFoot -22.175892 18.805356 -23.771785
LeftToeBase 15.797380 -0.000000 -0.000000
RightUpLeg 9.993422 -7.143067 1.695853
RightLeg 1.247869 -0.000000 -0.000000
RightFoot -12.384084 -12.107941 13.397452
RightToeBase 11.464030 -0.000000 -0.000000
1956
root 3.621692 32.207595 -0.659085 -6.135356 -2.921459 -0.337640
Spine 3.093234 8.610182 -2.458300
Head 18.207981 -51.478171 -1.377884
LeftShoulder -1.835212 -8.286245 25.890100
LeftArm 0.794851 40.880356 -98.609537
LeftForeArm 2.628854 -0.000000 9.826092
LeftHand 9.973268 -0.000000 -4.947563
LeftHandThumb1 -26.253704 0.000000 33.147579
RightShoulder -5.483215 -3.875664 -25.477960
RightArm 26.940165 3.351259 60.317513
RightForeArm -4.288414 -0.000000 106.982136
RightHand 28.424678 0.000000 -18.646073
RightHandThumb1 -24.326973 -0.000000 -32.862282
LeftUpLeg 12.075976 3.606798 -0.805288
LeftLeg 2.848488 -0.000000 -0.000000
LeftFoot -22.164815 18.813534 -23.754091
LeftToeBase 15.771415 -0.000000 -0.000000
RightUpLeg 9.985929 -7.128267 1.678260
RightLeg 1.278636 -0.000000 -0.000000
RightFoot -12.545415 -12.077119 13.689272
RightToeBase 11.946764 -0.000000 -0.000000
1957
root 3.625751 32.207387 -0.656267 -6.135739 -2.883380 -0.332232
Spine 3.099798 8.665520 -2.466398
Head 18.045963 -51.569310 -1.199971
LeftShoulder -1.806859 -8.360305 25.937313
LeftArm 0.803655 40.856023 -98.674783
LeftForeArm 2.655786 -0.000000 9.821061
LeftHand 10.017615 -0.000000 -4.961449
LeftHandThumb1 -26.253704 0.000000 33.147579
RightShoulder -5.595254 -3.701329 -25.277153
RightArm 26.415341 5.054687 61.960564
RightForeArm -4.314615 0.000000 107.528691
RightHand 28.419629 -0.000000 -18.972625
RightHandThumb1 -24.326973 -0.000000 -32.862282
LeftUpLeg 12.071224 3.576166 -0.818296
LeftLeg 2.856038 -0.000000 -0.000000
LeftFoot -22.191531 18.809693 -23.762237
LeftToeBase 15.958064 -0.000000 -0.000000
RightUpLeg 9.996104 -7.137097 1.665291
RightLeg 1.279383 -0.000000 -0.000000
RightFoot -12.581838 -12.107424 13.709680
RightToeBase 12.028477 -0.000000 -0.000000
1958
root 3.629337 32.207164 -0.654751 -6.133522 -2.858915 -0.328776
Spine 3.081679 8.639818 -2.445080
Head 18.005602 -51.530439 -1.201621
LeftShoulder -1.793031 -8.394824 25.943145
LeftArm 0.775989 40.819478 -98.725150
LeftForeArm 2.606661 -0.000000 9.830203
LeftHand 10.097176 -0.000000 -4.970336
LeftHandThumb1 -26.253704 0.000000 33.147579
RightShoulder -5.597017 -3.323424 -25.141214
RightArm 25.821227 6.735594 63.685489
RightForeArm -4.214259 0.000000 108.063734
RightHand 28.386455 -0.000000 -19.221528
RightHandThumb1 -24.326973 -0.000000 -32.862282
LeftUpLeg 12.063288 3.552932 -0.830176
LeftLeg 2.869895 -0.000000 -0.000000
LeftFoot -22.173968 18.781064 -23.766054
LeftToeBase 15.822404 -0.000000 -0.000000
RightUpLeg 9.995237 -7.159538 1.659990
RightLeg 1.273178 -0.000000 -0.000000
RightFoot -12.431339 -12.153575 13.421826
RightToeBase 11.410766 -0.000000 -0.000000
1959
root 3.634182 32.206977 -0.651399 -6.137434 -2.824543 -0.327233
Spine 3.058788 8.561165 -2.405478
Head 18.017976 -51.445494 -1.288457
LeftShoulder -1.799258 -8.419458 25.928173
LeftArm 0.708465 40.784227 -98.781913
LeftForeArm 2.563199 0.000000 9.864146
LeftHand 10.162185 -0.000000 -4.945287
LeftHandThumb1 -26.253704 0.000000 33.147579
RightShoulder -5.542341 -3.067590 -25.001576
RightArm 25.383760 8.530029 65.396648
RightForeArm -4.037885 -0.000000 108.624823
RightHand 28.184946 -0.000000 -19.342163
RightHandThumb1 -24.326973 -0.000000 -32.862282
LeftUpLeg 12.056915 3.535702 -0.840491
LeftLeg 2.888660 -0.000000 -0.000000
LeftFoot -22.196275 18.790296 -23.740842
LeftToeBase 15.934932 -0.000000 -0.000000
RightUpLeg 9.998093 -7.148271 1.643110
RightLeg 1.310499 -0.000000 -0.000000
RightFoot -12.598840 -12.121337 13.718308
RightToeBase 11.914937 -0.000000 -0.000000
1960
root 3.638647 32.206855 -0.648517 -6.128776 -2.792982 -0.316640
Spine 3.032294 8.509294 -2.382647
Head 17.977525 -51.388033 -1.323957
LeftShoulder -1.807867 -8.424163 25.916198
LeftArm 0.701349 40.776585 -98.804122
LeftForeArm 2.528689 0.000000 9.877799
LeftHand 10.235476 -0.000000 -4.957456
LeftHandThumb1 -26.253704 0.000000 33.147579
RightShoulder -5.515641 -2.413708 -24.928991
RightArm 24.624691 10.210615 67.182230
RightForeArm -3.677911 -0.000000 109.190685
RightHand 28.052489 -0.000000 -19.714507
RightHandThumb1 -24.326973 -0.000000 -32.862282
LeftUpLeg 12.043755 3.493614 -0.866323
LeftLeg 2.897980 -0.000000 -0.000000
LeftFoot -22.204124 18.796376 -23.746237
LeftToeBase 15.934877 -0.000000 -0.000000
RightUpLeg 9.990453 -7.120404 1.632858
RightLeg 1.325889 -0.000000 -0.000000
RightFoot -12.662984 -12.168434 13.783897
RightToeBase 12.059453 -0.000000 -0.000000
1961
root 3.642255 32.206283 -0.644574 -6.127126 -2.755532 -0.307423
Spine 3.026400 8.596134 -2.399196
Head 17.853002 -51.513768 -1.164908
LeftShoulder -1.754862 -8.220003 25.947011
LeftArm 1.087495 40.858225 -98.619497
LeftForeArm 2.519909 -0.000000 9.870791
LeftHand 10.224036 -0.000000 -4.984296
LeftHandThumb1 -26.253704 0.000000 33.147579
RightShoulder -5.647997 -2.361406 -24.681187
RightArm 24.463182 12.223017 68.977759
RightForeArm -3.245608 -0.000000 109.718983
RightHand 28.263580 -0.000000 -20.057642
RightHandThumb1 -24.326973 -0.000000 -32.862282
LeftUpLeg 12.033200 3.479253 -0.879784
LeftLeg 2.919973 -0.000000 -0.000000
LeftFoot -22.198000 18.769509 -23.735876
LeftToeBase 15.924071 -0.000000 -0.000000
RightUpLeg 9.995848 -7.115391 1.621158
RightLeg 1.334926 -0.000000 -0.000000
RightFoot -12.676060 -12.212169 13.759679
RightToeBase 11.942953 -0.000000 -0.000000
1962
root 3.647132 32.205999 -0.641181 -6.126177 -2.723627 -0.313448
Spine 2.987602 8.424853 -2.326356
Head 17.930871 -51.325812 -1.383345
LeftShoulder -1.831032 -8.259494 25.901808
LeftArm 0.935736 40.867360 -98.705016
LeftForeArm 2.465899 -0.000000 9.930859
LeftHand 10.144693 -0.000000 -5.006825
LeftHandThumb1 -26.253704 0.000000 33.147579
RightShoulder -5.471742 -2.108230 -24.586034
RightArm 24.236217 14.198295 70.822624
RightForeArm -2.919205 -0.000000 110.275603
RightHand 28.285185 -0.000000 -20.072767
RightHandThumb1 -24.326973 -0.000000 -32.862282
LeftUpLeg 12.024504 3.436858 -0.890047
LeftLeg 2.941995 -0.000000 -0.000000
LeftFoot -22.201732 18.765248 -23.729906
LeftToeBase 15.858957 -0.000000 -0.000000
RightUpLeg 9.993451 -7.122424 1.617193
RightLeg 1.360061 -0.000000 -0.000000
RightFoot -12.703855 -12.222151 13.786895
RightToeBase 11.965581 -0.000000 -0.000000
1963
root 3.652724 32.205314 -0.636139 -6.139181 -2.681851 -0.309788
Spine 2.972976 8.364580 -2.283452
Head 17.949903 -51.271792 -1.479454
LeftShoulder -1.816496 -8.283590 25.871476
LeftArm 0.884257 40.874438 -98.750156
LeftForeArm 2.458000 -0.000000 9.976763
LeftHand 10.069524 0.000000 -4.955820
LeftHandThumb1 -26.253704 0.000000 33.147579
RightShoulder -5.425543 -1.898074 -24.466730
RightArm 24.094331 16.184554 72.689890
RightForeArm -2.489087 -0.000000 110.849608
RightHand 28.349522 -0.000000 -20.463882
RightHandThumb1 -24.326973 -0.000000 -32.862282
LeftUpLeg 12.030237 3.397148 -0.906726
LeftLeg 2.959532 -0.000000 -0.000000
LeftFoot -22.232201 18.773784 -23.723047
LeftToeBase 15.926086 -0.000000 -0.000000
RightUpLeg 10.009309 -7.160770 1.596485
RightLeg 1.383479 -0.000000 -0.000000
RightFoot -12.726351 -12.232564 13.770389
RightToeBase 11.896578 -0.000000 -0.000000
